<?xml version="1.0" encoding="UTF-8" standalone="no"?>
<!DOCTYPE svg PUBLIC "-//W3C//DTD SVG 1.1//EN" "http://www.w3.org/Graphics/SVG/1.1/DTD/svg11.dtd">
<svg xmlns="http://www.w3.org/2000/svg" version="1.1" viewBox="0.00 0.00 1448.00 1448.00">
<path fill="#ffffff" d="
  M 607.92 604.90
  Q 606.50 607.16 604.82 609.96
  A 0.58 0.58 0.0 0 1 603.75 609.76
  Q 603.68 609.36 603.86 608.74
  Q 608.40 593.68 618.04 581.24
  C 648.73 541.64 697.46 520.09 747.92 528.27
  C 794.10 535.77 831.67 567.24 849.06 610.20
  A 0.36 0.35 -9.1 0 1 848.70 610.69
  Q 848.13 610.65 847.68 610.05
  C 842.46 603.13 837.19 595.07 832.26 589.17
  Q 806.91 558.82 770.98 545.79
  C 708.36 523.08 642.69 549.52 607.92 604.90
  Z"
/>
<path fill="#ffffff" d="
  M 824.24 594.72
  C 819.38 589.76 813.01 586.41 808.97 583.02
  C 795.38 571.64 776.89 564.22 759.99 559.72
  C 734.26 552.87 707.19 554.08 682.11 562.67
  C 667.74 567.60 654.90 573.66 643.11 582.88
  Q 634.71 589.46 626.74 595.92
  Q 626.09 596.45 626.49 595.71
  Q 627.35 594.16 628.61 592.86
  C 635.84 585.47 643.69 577.57 651.44 571.76
  Q 676.73 552.77 709.50 548.98
  Q 764.67 542.59 805.99 576.18
  C 811.72 580.84 817.95 587.11 823.75 592.69
  Q 824.56 593.47 824.75 594.46
  Q 824.93 595.42 824.24 594.72
  Z"
/>
<path fill="#ffffff" d="
  M 555.82 569.40
  C 557.10 569.97 558.65 570.05 559.69 570.82
  C 563.35 573.51 562.39 581.97 562.37 586.00
  Q 562.05 630.50 562.60 674.80
  A 1.95 1.93 79.0 0 1 561.39 676.62
  L 557.11 678.35
  A 1.45 1.44 77.9 0 0 556.21 679.75
  L 556.76 694.21
  A 1.87 1.87 0.0 0 1 554.91 696.16
  L 534.55 696.46
  Q 533.61 696.47 533.61 695.55
  L 533.59 565.21
  Q 533.59 564.02 534.79 564.01
  L 553.13 563.82
  A 1.64 1.63 -3.7 0 1 554.77 565.25
  L 555.18 568.54
  Q 555.26 569.15 555.82 569.40
  Z"
/>
<path fill="#ffffff" d="
  M 889.31 675.47
  L 889.74 571.54
  A 1.35 1.35 0.0 0 1 890.95 570.20
  L 894.36 569.84
  A 1.35 1.35 0.0 0 0 895.55 568.71
  L 896.13 565.14
  A 1.35 1.35 0.0 0 1 897.46 564.00
  L 915.67 564.00
  A 1.35 1.35 0.0 0 1 917.02 565.35
  L 916.87 694.55
  A 1.35 1.35 0.0 0 1 915.53 695.90
  L 896.59 696.03
  A 1.35 1.35 0.0 0 1 895.23 694.66
  L 895.42 678.55
  A 1.35 1.35 0.0 0 0 894.20 677.19
  L 890.52 676.82
  A 1.35 1.35 0.0 0 1 889.31 675.47
  Z"
/>
<rect fill="#ffffff" x="-9.18" y="-55.63" transform="translate(513.65,630.12) rotate(0.1)" width="18.36" height="111.26" rx="1.19"/>
<rect fill="#ffffff" x="928.35" y="574.95" width="19.04" height="110.66" rx="1.79"/>
<path fill="#ffffff" d="
  M 478.20 675.35
  L 478.70 588.68
  A 1.48 1.48 0.0 0 1 480.18 587.21
  L 494.10 587.25
  A 1.48 1.48 0.0 0 1 495.57 588.73
  L 495.19 674.52
  A 1.48 1.48 0.0 0 1 493.79 675.99
  L 479.77 676.84
  A 1.48 1.48 0.0 0 1 478.20 675.35
  Z"
/>
<rect fill="#ffffff" x="-8.33" y="-44.04" transform="translate(964.70,632.22) rotate(-0.1)" width="16.66" height="88.08" rx="1.30"/>
<path fill="#ffffff" d="
  M 744.28 662.02
  C 748.72 660.97 751.37 650.15 752.55 646.46
  A 0.50 0.49 -66.3 0 1 753.26 646.18
  Q 753.70 646.42 753.66 646.99
  Q 752.05 669.86 737.86 688.12
  C 732.60 694.90 724.20 700.75 717.09 691.90
  Q 701.31 672.26 698.57 647.85
  Q 698.32 645.58 699.56 647.50
  C 702.19 651.58 704.19 658.87 709.00 660.96
  Q 711.37 661.99 709.99 659.81
  C 702.89 648.64 697.85 633.07 702.77 620.24
  C 709.70 602.20 741.63 601.75 750.07 618.41
  C 756.44 630.99 750.30 650.00 743.79 661.37
  A 0.44 0.44 0.0 0 0 744.28 662.02
  Z"
/>
<path fill="#ffffff" d="
  M 661.33 631.30
  C 660.87 638.44 653.22 636.60 654.78 630.76
  Q 655.07 629.70 654.48 629.09
  A 0.77 0.76 -52.7 0 0 653.27 629.26
  L 651.02 633.25
  A 1.84 1.81 -78.7 0 1 649.68 634.16
  C 640.09 635.45 630.63 635.44 620.99 635.75
  C 605.10 636.26 589.49 638.43 573.82 640.21
  Q 571.38 640.48 571.33 638.03
  Q 571.24 633.48 571.52 629.00
  Q 571.70 626.21 574.49 625.72
  C 598.74 621.48 622.10 619.23 646.27 618.15
  Q 650.73 617.95 654.68 617.19
  C 659.46 616.27 668.33 613.40 672.83 616.11
  C 676.51 618.32 678.38 619.64 683.01 620.98
  C 687.25 622.20 689.46 628.44 686.39 631.62
  C 682.38 635.78 676.30 629.14 673.08 626.72
  A 1.20 1.19 -67.2 0 0 671.18 627.50
  L 670.14 634.34
  Q 669.90 635.93 668.29 635.89
  L 664.06 635.77
  Q 662.53 635.72 662.75 634.21
  Q 663.08 631.87 662.85 631.26
  Q 662.60 630.58 661.99 630.63
  A 0.73 0.72 -1.0 0 0 661.33 631.30
  Z"
/>
<path fill="#ffffff" d="
  M 798.99 630.09
  C 797.60 632.03 796.63 635.64 794.26 634.84
  A 0.93 0.92 0.7 0 1 793.66 634.23
  L 792.67 630.90
  A 0.77 0.77 0.0 0 0 791.17 630.97
  L 790.35 635.06
  A 1.42 1.41 11.3 0 1 788.69 636.16
  L 788.29 636.09
  A 1.22 1.22 0.0 0 1 787.31 634.88
  Q 787.34 633.41 787.33 633.38
  Q 786.04 631.00 785.37 633.68
  Q 785.18 634.45 784.69 635.23
  A 1.26 1.26 0.0 0 1 782.39 634.81
  L 781.13 628.49
  A 1.39 1.39 0.0 0 0 778.76 627.81
  C 775.94 630.79 772.29 633.80 767.88 632.74
  C 761.02 631.08 764.52 623.00 769.79 621.71
  Q 771.73 621.23 773.74 620.97
  A 1.74 1.73 -67.7 0 0 774.60 620.61
  C 777.81 618.10 780.07 615.70 784.34 615.12
  C 787.87 614.64 792.65 616.44 796.43 617.42
  Q 799.47 618.20 802.63 618.34
  Q 810.95 618.68 819.24 619.09
  Q 845.47 620.39 876.87 625.64
  Q 879.42 626.07 879.49 628.24
  Q 879.64 632.83 879.56 637.39
  Q 879.50 640.68 875.98 640.10
  Q 843.92 634.76 807.25 635.26
  Q 804.04 635.31 801.44 632.71
  C 800.74 632.01 800.42 630.91 799.72 630.06
  Q 799.34 629.60 798.99 630.09
  Z"
/>
<rect fill="#ffffff" x="-11.68" y="-7.12" transform="translate(462.79,627.91) rotate(-0.9)" width="23.36" height="14.24" rx="3.86"/>
<rect fill="#ffffff" x="977.38" y="620.75" width="23.54" height="14.20" rx="3.59"/>
<path fill="#ffffff" d="
  M 657.72 682.48
  C 657.98 681.21 657.05 678.79 657.67 677.52
  A 0.61 0.61 0.0 0 1 658.52 677.26
  C 673.37 685.50 674.82 700.94 678.10 715.75
  C 682.81 736.99 698.25 751.13 717.94 759.31
  C 724.23 761.92 728.54 761.75 735.12 759.22
  Q 765.43 747.55 773.36 715.84
  Q 773.37 715.80 774.88 708.14
  C 777.20 696.42 782.08 682.84 793.06 676.42
  A 0.89 0.88 -8.6 0 1 794.37 677.38
  L 793.52 681.11
  A 0.86 0.85 -74.5 0 0 794.08 682.12
  L 794.41 682.22
  Q 795.61 682.61 796.18 681.48
  Q 800.67 672.54 805.10 663.64
  C 808.59 656.65 813.14 649.63 819.61 645.36
  C 824.76 641.96 836.49 636.53 842.44 640.47
  Q 845.73 642.64 845.69 647.01
  C 845.39 680.44 819.59 697.60 794.20 713.13
  C 791.24 714.95 787.95 718.43 785.67 721.70
  Q 780.60 728.98 775.32 736.73
  A 0.99 0.99 0.0 0 0 775.33 737.84
  Q 775.91 738.69 777.14 737.90
  Q 781.58 735.07 786.35 731.95
  A 0.55 0.54 74.1 0 1 787.19 732.42
  C 786.93 753.84 772.67 772.97 751.50 777.34
  C 741.92 779.33 733.74 779.07 727.86 770.88
  A 1.49 1.48 52.9 0 0 725.73 770.58
  C 720.45 774.76 715.59 778.03 708.49 777.81
  Q 683.19 777.06 671.13 755.20
  Q 664.76 743.65 664.10 731.17
  Q 664.04 729.92 665.06 730.64
  L 676.96 739.07
  A 1.14 1.13 48.2 0 0 678.16 739.14
  Q 679.10 738.65 678.36 737.60
  C 670.61 726.44 664.76 718.03 654.29 710.74
  Q 642.85 702.78 631.34 694.92
  C 623.96 689.87 618.78 681.10 613.00 671.84
  Q 606.90 662.05 606.10 650.51
  C 605.39 640.30 608.42 637.52 618.32 639.69
  C 632.22 642.73 639.97 652.83 646.19 664.80
  Q 650.96 673.98 656.47 682.71
  Q 657.38 684.15 657.72 682.48
  Z"
/>
<path fill="#ffffff" d="
  M 658.64 801.56
  C 602.39 769.83 571.15 715.49 571.58 650.96
  A 1.40 1.40 0.0 0 1 572.80 649.57
  L 579.27 648.71
  Q 580.54 648.54 580.52 649.82
  Q 580.41 656.28 580.67 663.24
  C 582.83 721.33 611.31 768.81 659.45 800.23
  A 0.52 0.51 -59.1 0 1 659.62 800.91
  L 659.38 801.35
  A 0.54 0.54 0.0 0 1 658.64 801.56
  Z"
/>
<path fill="#ffffff" d="
  M 857.11 725.33
  C 868.35 701.77 872.40 675.89 870.67 649.89
  Q 870.61 648.97 871.53 649.05
  L 878.03 649.60
  Q 879.06 649.69 879.10 650.71
  C 880.73 685.32 869.99 719.24 851.40 748.12
  Q 832.23 777.91 801.19 794.94
  Q 797.35 797.05 782.18 804.38
  Q 782.11 804.42 782.06 804.34
  L 781.94 804.12
  Q 781.78 803.83 782.06 803.65
  C 789.79 798.89 798.84 794.06 805.39 789.43
  C 828.26 773.24 845.09 750.54 857.11 725.33
  Z"
/>
<path fill="#ffffff" d="
  M 764.20 694.08
  L 764.43 693.50
  Q 765.13 691.75 763.25 691.79
  L 752.21 692.03
  A 1.05 1.04 0.5 0 1 751.14 690.95
  L 751.71 675.99
  A 0.49 0.49 0.0 0 1 752.59 675.70
  L 756.88 681.15
  A 1.19 1.18 -46.4 0 0 758.78 681.10
  Q 760.27 678.99 761.89 676.35
  C 770.10 663.02 783.03 660.16 797.78 663.26
  Q 800.13 663.75 800.40 665.86
  A 2.50 2.49 -12.4 0 1 798.68 668.55
  C 790.13 671.26 781.15 676.01 775.58 683.39
  Q 774.54 684.76 770.03 693.00
  C 760.29 710.77 743.77 727.83 728.43 739.94
  Q 725.98 741.87 723.21 739.80
  Q 696.61 719.95 680.92 690.99
  Q 676.93 683.62 674.65 681.15
  C 669.24 675.26 660.39 671.44 653.04 668.63
  A 2.15 2.13 83.8 0 1 652.01 667.79
  Q 650.11 664.82 653.19 663.82
  C 671.17 658.01 684.93 664.36 692.50 681.31
  A 1.14 1.13 50.8 0 0 694.46 681.51
  L 699.78 674.09
  Q 700.12 673.62 700.55 674.01
  Q 701.24 674.63 701.25 676.00
  Q 701.30 683.66 701.53 691.04
  A 2.71 2.70 9.2 0 1 697.89 693.66
  L 690.55 690.94
  A 0.79 0.79 0.0 0 0 689.55 692.00
  L 690.38 693.86
  A 3.73 3.71 83.9 0 0 692.97 695.97
  C 707.04 699.03 717.71 705.23 725.08 718.02
  A 0.81 0.81 0.0 0 0 726.48 718.02
  Q 738.31 697.60 762.19 695.56
  Q 763.65 695.44 764.20 694.08
  Z"
/>
<path fill="#ffffff" d="
  M 726.23 804.26
  A 0.90 0.90 0.0 0 0 724.71 804.53
  L 722.96 809.08
  A 2.53 2.51 -87.9 0 1 721.36 810.58
  Q 701.12 816.89 685.93 831.63
  Q 684.63 832.89 684.84 831.10
  Q 687.85 805.76 679.84 781.67
  Q 679.58 780.91 679.72 780.75
  A 1.31 1.30 34.6 0 1 681.35 780.46
  C 693.25 787.07 706.73 788.35 718.92 780.67
  Q 721.23 779.21 726.04 775.35
  A 0.62 0.61 48.9 0 1 726.87 775.41
  C 728.85 777.48 730.77 779.72 732.92 781.27
  C 742.48 788.15 755.14 787.50 765.37 782.78
  Q 767.67 781.71 770.01 780.70
  Q 770.55 780.46 770.48 781.05
  Q 770.02 784.88 769.31 788.54
  Q 765.19 809.88 767.14 832.00
  A 0.33 0.33 0.0 0 1 766.60 832.29
  C 761.64 828.27 758.10 824.74 751.69 820.81
  C 746.78 817.80 738.79 814.92 733.57 811.05
  Q 729.47 808.00 726.23 804.26
  Z
  M 725.94 798.72
  C 735.08 805.37 742.96 808.93 754.57 807.46
  Q 755.05 807.40 755.20 806.95
  Q 755.39 806.39 755.13 805.98
  Q 754.88 805.60 754.09 805.41
  C 742.18 802.50 734.98 796.61 726.93 787.75
  A 1.16 1.16 0.0 0 0 725.17 787.79
  Q 713.76 801.47 696.28 805.45
  Q 695.18 805.71 695.76 806.78
  A 0.98 0.96 79.1 0 0 696.50 807.29
  C 708.17 808.77 715.72 805.19 724.96 798.71
  A 0.86 0.85 45.3 0 1 725.94 798.72
  Z"
/>
<path fill="#ffffff" d="
  M 587.73 938.99
  L 574.95 939.06
  A 0.75 0.75 0.0 0 1 574.22 938.52
  Q 573.38 935.66 572.58 933.97
  C 570.22 929.00 562.31 928.97 558.00 930.53
  C 553.37 932.19 551.00 937.22 554.35 941.39
  Q 555.53 942.86 559.48 944.89
  C 566.57 948.55 575.53 950.84 579.89 953.57
  Q 594.99 963.03 588.59 979.75
  C 582.11 996.70 555.73 993.61 543.14 987.36
  Q 533.10 982.38 534.79 971.27
  C 535.09 969.30 536.51 968.78 538.41 968.76
  Q 544.31 968.70 549.74 968.74
  A 1.36 1.36 0.0 0 1 551.07 970.33
  C 548.92 982.94 570.79 984.27 572.73 972.98
  C 573.60 967.90 566.67 963.68 562.88 961.96
  Q 555.67 958.70 548.51 955.31
  C 533.71 948.30 530.23 929.69 546.13 921.14
  Q 559.52 913.93 574.01 917.30
  C 583.99 919.62 590.42 927.69 588.73 938.14
  A 1.01 1.01 0.0 0 1 587.73 938.99
  Z"
/>
<path fill="#ffffff" d="
  M 888.32 933.28
  C 882.81 928.81 873.40 929.26 867.35 932.10
  C 854.57 938.11 852.10 956.12 858.97 967.35
  C 866.24 979.23 882.83 980.56 894.19 973.40
  Q 897.38 971.39 900.53 969.28
  C 903.12 967.54 908.03 972.62 909.57 974.62
  A 2.75 2.75 0.0 0 1 909.44 978.13
  C 895.28 994.01 875.70 995.90 857.08 986.63
  C 840.55 978.40 837.76 962.88 840.06 945.64
  C 842.80 925.17 859.27 915.98 878.35 916.35
  C 890.33 916.58 899.56 921.29 906.18 931.02
  C 907.72 933.29 910.93 943.18 906.11 943.74
  Q 900.69 944.38 895.26 944.77
  A 1.19 1.18 -8.8 0 1 894.01 943.86
  C 893.04 939.78 891.67 935.99 888.32 933.28
  Z"
/>
<path fill="#ffffff" d="
  M 618.38 979.85
  A 1.22 1.22 0.0 0 0 619.48 978.64
  L 619.50 932.70
  A 1.68 1.67 -90.0 0 0 617.83 931.02
  L 608.16 931.03
  A 1.24 1.24 0.0 0 0 606.93 932.46
  C 607.82 938.15 599.57 936.77 596.29 936.09
  A 1.67 1.66 6.1 0 1 594.96 934.45
  L 595.10 918.83
  A 1.33 1.33 0.0 0 1 596.42 917.51
  L 657.72 917.30
  A 2.74 2.73 89.1 0 1 660.46 919.97
  L 660.78 933.34
  Q 660.85 936.53 657.66 936.51
  L 649.94 936.46
  A 1.44 1.43 78.5 0 1 648.62 935.58
  Q 645.73 928.72 638.28 930.85
  C 635.96 931.52 634.95 931.34 634.96 934.00
  Q 635.01 955.94 635.02 978.25
  A 1.61 1.61 0.0 0 0 636.58 979.86
  L 641.09 980.00
  Q 642.63 980.05 642.65 981.59
  L 642.78 990.22
  A 1.27 1.26 89.8 0 1 641.52 991.50
  L 612.92 991.50
  A 2.07 2.07 0.0 0 1 610.85 989.42
  L 610.87 982.50
  A 2.08 2.08 0.0 0 1 612.74 980.44
  L 618.38 979.85
  Z"
/>
<path fill="#ffffff" d="
  M 709.00 978.55
  L 708.78 971.68
  A 1.53 1.53 0.0 0 1 710.32 970.09
  L 719.61 970.19
  Q 721.51 970.22 721.50 972.11
  L 721.47 989.91
  Q 721.47 991.54 719.84 991.53
  L 668.91 991.10
  A 1.76 1.76 0.0 0 1 667.16 989.42
  L 666.81 982.13
  A 1.71 1.71 0.0 0 1 668.31 980.35
  L 673.97 979.66
  A 1.46 1.46 0.0 0 0 675.26 978.20
  L 675.08 932.04
  A 1.18 1.18 0.0 0 0 674.04 930.88
  L 668.40 930.18
  A 1.79 1.78 3.6 0 1 666.82 928.40
  L 666.83 918.57
  A 1.10 1.10 0.0 0 1 667.93 917.47
  L 718.59 917.51
  Q 720.17 917.51 720.12 919.09
  L 719.64 935.24
  Q 719.62 935.87 719.06 936.17
  C 714.79 938.46 707.62 938.98 707.35 932.12
  A 1.85 1.85 0.0 0 0 705.52 930.34
  L 691.82 930.24
  Q 689.86 930.23 689.90 932.18
  L 690.15 948.43
  A 1.49 1.49 0.0 0 0 691.69 949.90
  L 707.34 949.44
  A 2.85 2.85 0.0 0 1 710.28 952.34
  L 710.17 959.11
  A 2.50 2.49 -89.1 0 1 707.64 961.57
  L 692.22 961.33
  A 1.46 1.46 0.0 0 0 690.74 962.78
  L 690.71 977.76
  A 1.69 1.69 0.0 0 0 692.39 979.46
  L 707.95 979.63
  A 1.04 1.04 0.0 0 0 709.00 978.55
  Z"
/>
<path fill="#ffffff" d="
  M 750.47 979.80
  A 1.06 1.05 85.4 0 0 751.34 978.77
  Q 751.53 956.04 751.54 933.50
  Q 751.54 931.89 750.73 931.23
  C 748.40 929.35 742.72 929.81 740.21 930.90
  C 735.72 932.84 734.72 938.48 728.75 936.83
  Q 727.17 936.39 727.10 934.75
  Q 726.79 927.01 726.55 919.22
  A 1.45 1.45 0.0 0 1 727.99 917.72
  L 790.78 917.52
  Q 792.04 917.51 792.03 918.78
  L 791.88 935.50
  A 1.13 1.13 0.0 0 1 790.75 936.62
  L 782.79 936.66
  A 1.25 1.20 67.2 0 1 781.87 936.26
  C 777.59 931.68 774.70 929.17 767.98 931.54
  A 1.66 1.66 0.0 0 0 766.88 933.13
  Q 767.17 954.74 767.57 976.75
  C 767.63 980.30 770.60 979.58 772.76 980.55
  C 776.39 982.18 775.22 988.21 773.71 990.67
  Q 773.45 991.09 772.95 991.09
  L 744.66 991.26
  Q 743.55 991.27 743.55 990.16
  L 743.53 982.64
  A 1.90 1.90 0.0 0 1 745.10 980.77
  L 750.47 979.80
  Z"
/>
<path fill="#ffffff" d="
  M 823.35 931.01
  A 0.74 0.74 0.0 0 0 822.73 931.75
  L 822.89 978.33
  A 1.50 1.49 -89.0 0 0 824.32 979.82
  L 829.31 980.04
  A 1.28 1.28 0.0 0 1 830.53 981.32
  L 830.48 990.12
  A 1.10 1.09 -0.0 0 1 829.38 991.21
  L 800.68 991.10
  Q 799.26 991.09 799.28 989.68
  L 799.36 982.30
  A 1.96 1.96 0.0 0 1 801.07 980.38
  L 805.71 979.77
  A 1.28 1.28 0.0 0 0 806.82 978.51
  Q 807.05 956.06 807.02 934.25
  C 807.01 930.01 801.96 930.36 799.27 930.78
  Q 798.64 930.88 798.64 930.24
  L 798.56 918.21
  Q 798.56 917.73 799.04 917.73
  L 829.49 917.73
  A 2.24 2.23 -0.8 0 1 831.73 919.90
  Q 831.85 923.75 831.69 927.76
  Q 831.58 930.72 829.02 930.64
  Q 826.04 930.55 823.35 931.01
  Z"
/>
<path fill="#ffffff" d="
  M 733.79 1028.66
  A 0.94 0.87 -1.1 0 0 734.75 1027.74
  L 733.96 1014.65
  A 1.64 1.63 88.4 0 1 735.60 1012.91
  L 741.68 1012.92
  A 1.03 1.03 0.0 0 1 742.48 1013.30
  C 745.12 1016.56 742.58 1018.18 740.35 1020.21
  A 1.22 1.21 -21.9 0 0 739.97 1021.09
  Q 739.98 1029.94 740.29 1038.74
  C 740.44 1042.91 736.32 1042.41 734.42 1039.81
  Q 729.69 1033.36 724.68 1026.52
  A 1.47 1.47 0.0 0 0 722.09 1026.97
  C 720.71 1031.66 722.29 1036.28 725.02 1040.20
  A 0.98 0.98 0.0 0 1 724.26 1041.74
  L 714.56 1042.12
  A 1.13 1.13 0.0 0 1 713.48 1040.53
  Q 718.96 1028.39 713.86 1016.06
  A 2.47 2.46 51.5 0 1 714.13 1013.69
  C 715.75 1011.43 718.49 1011.77 720.30 1013.81
  Q 726.63 1020.95 732.93 1028.07
  Q 733.45 1028.65 733.79 1028.66
  Z"
/>
<path fill="#ffffff" d="
  M 887.18 1021.35
  A 0.90 0.90 0.0 0 0 887.45 1022.85
  C 893.85 1025.47 904.35 1027.53 901.84 1037.37
  Q 901.34 1039.33 899.91 1040.01
  Q 890.64 1044.44 881.36 1040.33
  Q 879.54 1039.52 880.49 1037.78
  L 882.02 1034.98
  Q 882.93 1033.31 884.53 1034.34
  Q 887.42 1036.21 890.72 1038.48
  C 895.62 1041.84 898.92 1032.47 894.23 1031.30
  C 889.14 1030.03 877.67 1025.57 882.17 1017.98
  C 884.39 1014.23 890.00 1011.56 894.26 1012.73
  C 897.09 1013.51 903.36 1017.53 900.96 1021.38
  A 2.24 2.24 0.0 0 1 897.55 1021.85
  L 893.76 1018.38
  A 2.52 2.51 -45.2 0 0 890.36 1018.40
  L 887.18 1021.35
  Z"
/>
<path fill="#ffffff" d="
  M 569.87 1021.23
  L 569.80 1022.15
  A 2.35 2.34 -84.8 0 0 571.91 1024.69
  L 577.68 1025.25
  A 1.94 1.94 0.0 0 1 579.42 1027.38
  L 579.36 1027.98
  A 2.42 2.41 3.7 0 1 576.90 1030.13
  L 571.31 1030.00
  A 1.27 1.27 0.0 0 0 570.07 1030.90
  Q 568.19 1037.17 574.35 1038.58
  Q 575.26 1038.79 575.60 1039.08
  Q 576.32 1039.70 575.95 1040.67
  A 1.64 1.63 9.7 0 1 574.47 1041.71
  L 563.01 1041.96
  A 1.10 1.10 0.0 0 1 561.96 1040.49
  Q 566.55 1027.86 562.38 1015.08
  A 1.34 1.34 0.0 0 1 563.61 1013.32
  L 582.61 1012.80
  A 1.67 1.66 -88.3 0 1 584.32 1014.62
  L 583.74 1020.81
  A 1.53 1.52 19.3 0 1 581.39 1021.94
  C 578.47 1020.03 576.61 1018.52 572.44 1018.74
  Q 570.07 1018.87 569.87 1021.23
  Z"
/>
<path fill="#ffffff" d="
  M 836.60 1022.35
  A 1.12 1.11 -85.7 0 0 837.35 1023.23
  C 843.70 1025.40 855.70 1027.95 851.86 1037.89
  Q 851.27 1039.44 849.53 1040.21
  Q 839.58 1044.63 830.30 1039.93
  A 1.79 1.79 0.0 0 1 829.57 1037.43
  L 831.44 1034.25
  A 1.77 1.76 38.2 0 1 834.22 1033.92
  Q 836.31 1036.05 838.72 1038.23
  C 840.51 1039.86 844.15 1037.70 845.14 1035.93
  A 2.60 2.60 0.0 0 0 844.54 1032.67
  C 840.96 1029.69 835.42 1029.27 832.45 1025.88
  C 825.22 1017.61 844.38 1006.34 851.26 1017.21
  C 853.89 1021.37 846.31 1025.03 843.66 1018.60
  A 1.90 1.89 60.2 0 0 840.77 1017.81
  Q 838.70 1019.39 836.86 1021.60
  Q 836.54 1021.99 836.60 1022.35
  Z"
/>
<path fill="#ffffff" d="
  M 613.92 1020.31
  C 613.39 1018.35 611.13 1018.13 611.33 1015.24
  Q 611.47 1013.15 613.49 1013.08
  Q 617.62 1012.94 621.74 1012.98
  C 624.38 1013.00 625.29 1014.58 624.35 1016.99
  A 1.49 1.46 84.6 0 1 623.81 1017.66
  C 622.19 1018.75 621.56 1019.70 621.53 1021.78
  Q 621.44 1028.16 621.31 1034.50
  C 621.24 1037.82 624.25 1037.74 624.64 1040.01
  C 624.88 1041.43 623.75 1042.14 622.41 1042.18
  Q 617.40 1042.34 612.60 1042.17
  A 1.11 1.11 0.0 0 1 611.66 1040.55
  Q 616.76 1030.92 613.92 1020.31
  Z"
/>
<path fill="#ffffff" d="
  M 672.21 1018.20
  Q 671.39 1018.56 671.39 1019.30
  Q 671.45 1025.83 671.46 1032.43
  C 671.47 1035.97 673.01 1038.28 675.02 1040.89
  A 0.69 0.69 0.0 0 1 674.48 1042.00
  L 663.01 1042.05
  A 0.71 0.70 -82.4 0 1 662.33 1041.16
  Q 663.01 1038.56 663.74 1035.91
  Q 666.01 1027.59 664.08 1019.07
  A 1.04 1.03 -24.6 0 0 662.46 1018.47
  L 657.80 1021.90
  A 1.91 1.90 -21.5 0 1 654.78 1020.59
  L 654.09 1014.74
  A 1.43 1.43 0.0 0 1 655.51 1013.14
  L 679.74 1013.14
  Q 681.83 1013.14 681.88 1015.23
  L 681.97 1019.03
  Q 682.02 1021.05 680.08 1020.47
  Q 677.08 1019.58 673.45 1018.31
  Q 672.62 1018.02 672.21 1018.20
  Z"
/>
<path fill="#ffffff" d="
  M 784.87 1032.58
  L 785.02 1034.77
  A 2.95 2.95 0.0 0 0 787.65 1037.50
  Q 793.02 1038.09 796.59 1034.19
  A 0.83 0.83 0.0 0 1 798.02 1034.58
  L 799.02 1039.51
  A 2.07 2.07 0.0 0 1 796.97 1041.99
  L 778.25 1041.83
  A 2.02 0.85 54.8 0 1 777.00 1041.05
  Q 776.60 1040.60 777.05 1039.49
  C 778.58 1035.76 782.36 1020.43 777.47 1018.19
  A 2.13 2.12 10.5 0 1 776.23 1016.39
  Q 776.04 1013.37 778.75 1013.29
  Q 787.91 1013.04 797.30 1013.11
  A 2.00 1.99 0.1 0 1 799.28 1015.09
  L 799.30 1019.48
  Q 799.31 1021.32 797.52 1020.91
  L 787.76 1018.65
  Q 785.64 1018.16 785.31 1020.32
  L 784.93 1022.81
  A 1.69 1.69 0.0 0 0 786.57 1024.75
  L 790.61 1024.81
  Q 792.95 1024.84 793.50 1027.12
  L 793.71 1027.97
  Q 794.18 1029.95 792.15 1030.04
  L 786.92 1030.29
  Q 784.72 1030.39 784.87 1032.58
  Z"
/>
</svg>
